<svg width="56" height="56" viewBox="0 0 56 56" fill="none" xmlns="http://www.w3.org/2000/svg">
<rect x="1" y="1" width="54" height="54" rx="27" stroke="#F2F3F5" stroke-width="2"/>
<path d="M12.8337 14.5254H21.9337C23.5427 14.5254 25.0858 15.1891 26.2235 16.3706C27.3613 17.5521 28.0004 19.1545 28.0004 20.8254V42.8754C28.0004 41.6222 27.521 40.4204 26.6678 39.5343C25.8145 38.6482 24.6571 38.1504 23.4504 38.1504H12.8337V14.5254Z" stroke="#F2F3F5" stroke-width="2" stroke-linecap="round" stroke-linejoin="round"/>
<path d="M43.1669 14.5254H34.0669C32.4579 14.5254 30.9149 15.1891 29.7771 16.3706C28.6394 17.5521 28.0002 19.1545 28.0002 20.8254V42.8754C28.0002 41.6222 28.4796 40.4204 29.3329 39.5343C30.1862 38.6482 31.3435 38.1504 32.5502 38.1504H43.1669V14.5254Z" stroke="#F2F3F5" stroke-width="2" stroke-linecap="round" stroke-linejoin="round"/>
</svg>
