<svg width="271" height="165" viewBox="0 0 271 165" fill="none" xmlns="http://www.w3.org/2000/svg">
<path fill-rule="evenodd" clip-rule="evenodd" d="M228.617 21.0378C228.322 34.2286 237.688 40.4504 237.688 40.4504C237.688 40.4504 247.49 33.2842 247.775 20.4311C248.067 7.55542 237.293 0 237.293 0C237.293 0 228.905 7.84493 228.617 21.0378ZM210.958 52.4036C214.83 64.6599 226.224 68.7258 226.224 68.7258C226.224 68.7258 233.492 60.07 229.53 47.4894C225.55 34.9124 215.329 29.8071 215.329 29.8071C215.329 29.8071 207.094 40.1492 210.958 52.4036ZM249.534 46.2913C242.005 57.1227 246.36 67.5467 246.36 67.5467C246.36 67.5467 258.457 67.0344 265.779 56.4638C273.124 45.8991 268.353 33.5966 268.353 33.5966C268.353 33.5966 257.057 35.4503 249.534 46.2913ZM221.336 82.2428C223.633 95.2363 215.306 102.879 215.306 102.879C215.306 102.879 204.53 97.3493 202.288 84.6947C200.073 72.031 209.568 62.8532 209.568 62.8532C209.568 62.8532 219.038 69.2569 221.336 82.2428ZM202.409 104.936C201.336 91.7676 192.516 84.5005 192.516 84.5005C192.516 84.5005 182.2 92.7448 183.245 105.565C184.29 118.386 194.477 124.909 194.477 124.909C194.477 124.909 203.476 118.095 202.409 104.936ZM167.202 145.414C167.202 145.414 159.311 136.215 161.985 123.621C164.667 111.029 176.912 106.114 176.912 106.114C176.912 106.114 183.258 115.637 180.519 128.562C177.773 141.485 167.202 145.414 167.202 145.414ZM239.308 93.8749C239.308 93.8749 238.223 82.6164 248.574 74.4866C258.949 66.3552 270.272 67.9213 270.272 67.9213C270.272 67.9213 271.225 81.1143 261.114 89.0409C251.001 96.9751 239.308 93.8749 239.308 93.8749ZM236.859 101.73C224.961 107.362 223.532 118.588 223.532 118.588C223.532 118.588 234.252 124.208 245.848 118.738C257.444 113.268 259.438 100.176 259.438 100.176C259.438 100.176 248.76 96.1152 236.859 101.73ZM204.529 137.426C204.529 137.426 209.267 127.144 222.289 125.405C235.329 123.661 244.261 130.78 244.261 130.78C244.261 130.78 238.419 142.655 225.729 144.355C213.031 146.059 204.529 137.426 204.529 137.426ZM217.536 153.16C217.536 153.16 209.49 145.022 196.361 145.176C183.236 145.341 177.333 154.978 177.333 154.978C177.333 154.978 184.739 164.574 197.536 164.427C210.343 164.243 217.536 153.16 217.536 153.16ZM234.444 47.4919L240.607 46.2655C240.733 46.9395 252.67 114.088 156.11 160.527L153.431 154.856C245.343 110.633 234.937 50.0399 234.444 47.4919ZM20.7615 46.8217C28.2902 57.6531 23.9353 68.0772 23.9353 68.0772C23.9353 68.0772 11.8381 67.5649 4.51627 56.9942C-2.82813 46.4295 1.94217 34.127 1.94217 34.127C1.94217 34.127 13.2383 35.9807 20.7615 46.8217ZM44.0723 69.2562C44.0723 69.2562 55.4664 65.1904 59.3384 52.934C63.2028 40.6796 54.9671 30.3376 54.9671 30.3376C54.9671 30.3376 44.7461 35.4428 40.7667 48.0198C36.8043 60.6004 44.0723 69.2562 44.0723 69.2562ZM54.9892 103.409C54.9892 103.409 46.6629 95.7667 48.9592 82.7732C51.2576 69.7874 60.7276 63.3836 60.7276 63.3836C60.7276 63.3836 70.2228 72.5614 68.0074 85.2251C65.7654 97.8798 54.9892 103.409 54.9892 103.409ZM77.7799 85.0309C77.7799 85.0309 68.9603 92.298 67.8875 105.466C66.8201 118.625 75.8189 125.439 75.8189 125.439C75.8189 125.439 86.0065 118.916 87.0517 106.096C88.0968 93.2752 77.7799 85.0309 77.7799 85.0309ZM108.31 124.151C110.984 136.745 103.093 145.944 103.093 145.944C103.093 145.944 92.5226 142.016 89.7765 129.092C87.0379 116.167 93.3833 106.645 93.3833 106.645C93.3833 106.645 105.629 111.559 108.31 124.151ZM32.6079 40.9808C32.6079 40.9808 41.9736 34.759 41.6784 21.5682C41.3907 8.37535 33.0021 0.53042 33.0021 0.53042C33.0021 0.53042 22.2289 8.08584 22.5202 20.9616C22.8055 33.8146 32.6079 40.9808 32.6079 40.9808ZM21.7219 75.017C32.0727 83.1469 30.9877 94.4053 30.9877 94.4053C30.9877 94.4053 19.2945 97.5055 9.18158 89.5714C-0.929367 81.6447 0.0239993 68.4518 0.0239993 68.4518C0.0239993 68.4518 11.3465 66.8856 21.7219 75.017ZM46.7633 119.118C46.7633 119.118 45.3346 107.893 33.4369 102.261C21.5357 96.6456 10.8575 100.706 10.8575 100.706C10.8575 100.706 12.851 113.799 24.4473 119.268C36.0435 124.738 46.7633 119.118 46.7633 119.118ZM48.0072 125.935C61.0297 127.675 65.7677 137.957 65.7677 137.957C65.7677 137.957 57.2658 146.59 44.567 144.885C31.8777 143.186 26.0358 131.311 26.0358 131.311C26.0358 131.311 34.9676 124.192 48.0072 125.935ZM73.9349 145.707C60.8053 145.552 52.7591 153.69 52.7591 153.69C52.7591 153.69 59.9524 164.774 72.7595 164.958C85.5565 165.104 92.9622 155.508 92.9622 155.508C92.9622 155.508 87.059 145.871 73.9349 145.707ZM29.6885 46.7959L35.8521 48.0224C35.3583 50.5703 24.953 111.164 116.864 155.386L114.185 161.057C17.6261 114.618 29.5629 47.4699 29.6885 46.7959Z" fill="url(#paint0_linear_10_216)"/>
<defs>
<linearGradient id="paint0_linear_10_216" x1="135.148" y1="0" x2="135.148" y2="164.959" gradientUnits="userSpaceOnUse">
<stop stop-color="#5965E0"/>
<stop offset="1" stop-color="#6C5CE7" stop-opacity="0"/>
</linearGradient>
</defs>
</svg>
