<svg width="486" height="102" viewBox="0 0 486 102" fill="none" xmlns="http://www.w3.org/2000/svg">
<path d="M50 2.5625C23.2422 2.5625 1.5625 24.2422 1.5625 51C1.5625 77.7578 23.2422 99.4375 50 99.4375C76.7578 99.4375 98.4375 77.7578 98.4375 51C98.4375 24.2422 76.7578 2.5625 50 2.5625ZM61.1523 70.9414L43.9258 58.4219C43.3203 57.9727 42.9688 57.2695 42.9688 56.5273V23.6562C42.9688 22.3672 44.0234 21.3125 45.3125 21.3125H54.6875C55.9766 21.3125 57.0312 22.3672 57.0312 23.6562V50.5508L69.4336 59.5742C70.4883 60.3359 70.7031 61.8008 69.9414 62.8555L64.4336 70.4336C63.6719 71.4688 62.207 71.7031 61.1523 70.9414Z" fill="white"/>
<path d="M117.24 74H112.2C111.293 74 110.84 73.5467 110.84 72.64V23.92C110.84 23.0133 111.293 22.56 112.2 22.56H117.24C118.147 22.56 118.6 23.0133 118.6 23.92V43.92C118.6 44.4533 118.92 44.72 119.56 44.72H136.44C136.973 44.72 137.24 44.4533 137.24 43.92V23.92C137.24 23.0133 137.693 22.56 138.6 22.56H143.72C144.627 22.56 145.08 23.0133 145.08 23.92V72.64C145.08 73.5467 144.627 74 143.72 74H138.6C137.693 74 137.24 73.5467 137.24 72.64V52.4C137.24 51.8667 136.973 51.6 136.44 51.6H119.56C118.92 51.6 118.6 51.8667 118.6 52.4V72.64C118.6 73.5467 118.147 74 117.24 74ZM163.178 74H158.138C157.231 74 156.778 73.5467 156.778 72.64V23.92C156.778 23.0133 157.231 22.56 158.138 22.56H177.178C181.071 22.56 184.111 23.6533 186.298 25.84C188.484 27.9733 189.578 31.0133 189.578 34.96V43.28C189.578 47.1733 188.484 50.2133 186.298 52.4C184.111 54.5867 181.071 55.68 177.178 55.68H165.498C164.858 55.68 164.538 55.9467 164.538 56.48V72.64C164.538 73.5467 164.084 74 163.178 74ZM165.418 48.8H176.058C179.844 48.8 181.738 46.8267 181.738 42.88V35.28C181.738 31.3333 179.844 29.36 176.058 29.36H165.418C164.831 29.36 164.538 29.6267 164.538 30.16V48C164.538 48.5333 164.831 48.8 165.418 48.8ZM216.883 74H209.843C205.896 74 202.83 72.9067 200.643 70.72C198.51 68.5333 197.443 65.4933 197.443 61.6V45.6C197.443 41.6533 198.51 38.6133 200.643 36.48C202.83 34.2933 205.896 33.2 209.843 33.2H216.883C220.776 33.2 223.816 34.2933 226.003 36.48C228.243 38.6133 229.363 41.6533 229.363 45.6V61.6C229.363 65.4933 228.243 68.5333 226.003 70.72C223.816 72.9067 220.776 74 216.883 74ZM210.963 67.2H215.843C219.683 67.2 221.603 65.2533 221.603 61.36V45.84C221.603 41.9467 219.683 40 215.843 40H210.963C208.936 40 207.47 40.48 206.563 41.44C205.656 42.3467 205.203 43.8133 205.203 45.84V61.36C205.203 63.3867 205.656 64.88 206.563 65.84C207.47 66.7467 208.936 67.2 210.963 67.2ZM244.956 74H239.916C239.009 74 238.556 73.5467 238.556 72.64V34.56C238.556 33.6533 239.009 33.2 239.916 33.2H244.956C245.862 33.2 246.316 33.6533 246.316 34.56V37.44H246.636C248.182 34.6133 251.009 33.2 255.116 33.2H257.756C262.396 33.2 265.702 34.96 267.676 38.48C268.529 36.7733 269.836 35.4667 271.596 34.56C273.356 33.6533 275.249 33.2 277.276 33.2H279.836C283.729 33.2 286.689 34.2933 288.716 36.48C290.796 38.6133 291.836 41.6533 291.836 45.6V72.64C291.836 73.5467 291.382 74 290.476 74H285.356C284.449 74 283.996 73.5467 283.996 72.64V45.92C283.996 41.9733 282.076 40 278.236 40H275.916C271.489 40 269.276 42.32 269.276 46.96V72.64C269.276 73.5467 268.796 74 267.836 74H262.796C261.889 74 261.436 73.5467 261.436 72.64V45.92C261.436 41.9733 259.516 40 255.676 40H252.876C248.502 40 246.316 42.2667 246.316 46.8V72.64C246.316 73.5467 245.862 74 244.956 74ZM320.164 74H313.124C309.178 74 306.111 72.9067 303.924 70.72C301.791 68.5333 300.724 65.4933 300.724 61.6V45.6C300.724 41.6533 301.791 38.6133 303.924 36.48C306.111 34.2933 309.178 33.2 313.124 33.2H320.164C324.058 33.2 327.098 34.2933 329.284 36.48C331.524 38.6133 332.644 41.6533 332.644 45.6V61.6C332.644 65.4933 331.524 68.5333 329.284 70.72C327.098 72.9067 324.058 74 320.164 74ZM314.244 67.2H319.124C322.964 67.2 324.884 65.2533 324.884 61.36V45.84C324.884 41.9467 322.964 40 319.124 40H314.244C312.218 40 310.751 40.48 309.844 41.44C308.938 42.3467 308.484 43.8133 308.484 45.84V61.36C308.484 63.3867 308.938 64.88 309.844 65.84C310.751 66.7467 312.218 67.2 314.244 67.2ZM357.037 74H352.957C349.117 74 346.157 72.9333 344.077 70.8C342.05 68.6133 341.037 65.5467 341.037 61.6V45.6C341.037 41.6 342.05 38.5333 344.077 36.4C346.157 34.2667 349.117 33.2 352.957 33.2H357.037C361.144 33.2 363.81 34.6133 365.037 37.44H365.357V19.12C365.357 18.2133 365.81 17.76 366.717 17.76H371.837C372.744 17.76 373.197 18.2133 373.197 19.12V72.64C373.197 73.5467 372.744 74 371.837 74H366.717C365.81 74 365.357 73.5467 365.357 72.64V69.76H365.037C363.81 72.5867 361.144 74 357.037 74ZM365.357 60.4V46.8C365.357 42.2667 363.17 40 358.797 40H354.557C350.717 40 348.797 41.9733 348.797 45.92V61.28C348.797 65.2267 350.717 67.2 354.557 67.2H358.797C363.17 67.2 365.357 64.9333 365.357 60.4ZM401.883 74H394.843C390.896 74 387.83 72.9067 385.643 70.72C383.51 68.5333 382.443 65.4933 382.443 61.6V45.6C382.443 41.6533 383.51 38.6133 385.643 36.48C387.83 34.2933 390.896 33.2 394.843 33.2H401.883C405.776 33.2 408.816 34.2933 411.003 36.48C413.243 38.6133 414.363 41.6533 414.363 45.6V61.6C414.363 65.4933 413.243 68.5333 411.003 70.72C408.816 72.9067 405.776 74 401.883 74ZM395.963 67.2H400.843C404.683 67.2 406.603 65.2533 406.603 61.36V45.84C406.603 41.9467 404.683 40 400.843 40H395.963C393.936 40 392.47 40.48 391.563 41.44C390.656 42.3467 390.203 43.8133 390.203 45.84V61.36C390.203 63.3867 390.656 64.88 391.563 65.84C392.47 66.7467 393.936 67.2 395.963 67.2ZM429.956 74H424.916C424.009 74 423.556 73.5467 423.556 72.64V34.56C423.556 33.6533 424.009 33.2 424.916 33.2H429.956C430.862 33.2 431.316 33.6533 431.316 34.56V37.6H431.636C432.169 36.2667 433.182 35.2 434.676 34.4C436.222 33.6 437.929 33.2 439.796 33.2H442.756C443.662 33.2 444.116 33.6533 444.116 34.56V38.72C444.116 39.7333 443.662 40.16 442.756 40H437.956C433.529 40 431.316 42.4267 431.316 47.28V72.64C431.316 73.5467 430.862 74 429.956 74ZM468.993 74H461.953C458.006 74 454.939 72.9067 452.753 70.72C450.619 68.5333 449.553 65.4933 449.553 61.6V45.6C449.553 41.6533 450.619 38.6133 452.753 36.48C454.939 34.2933 458.006 33.2 461.953 33.2H468.993C472.886 33.2 475.926 34.2933 478.113 36.48C480.353 38.6133 481.473 41.6533 481.473 45.6V61.6C481.473 65.4933 480.353 68.5333 478.113 70.72C475.926 72.9067 472.886 74 468.993 74ZM463.073 67.2H467.953C471.793 67.2 473.713 65.2533 473.713 61.36V45.84C473.713 41.9467 471.793 40 467.953 40H463.073C461.046 40 459.579 40.48 458.673 41.44C457.766 42.3467 457.313 43.8133 457.313 45.84V61.36C457.313 63.3867 457.766 64.88 458.673 65.84C459.579 66.7467 461.046 67.2 463.073 67.2Z" fill="white"/>
</svg>
