<svg width="469" height="120" viewBox="0 0 469 120" fill="none" xmlns="http://www.w3.org/2000/svg">
<rect x="2.5" y="2.5" width="115" height="115" rx="57.5" stroke="#F2F3F5" stroke-width="5"/>
<path d="M27.501 31.1259H47.001C50.4488 31.1259 53.7554 32.5482 56.1934 35.0799C58.6314 37.6117 60.001 41.0454 60.001 44.6259V91.8758C60.001 89.1905 58.9738 86.6152 57.1453 84.7164C55.3168 82.8176 52.8369 81.7508 50.251 81.7508H27.501V31.1259Z" stroke="#F2F3F5" stroke-width="5" stroke-linecap="round" stroke-linejoin="round"/>
<path d="M92.501 31.1259H73.001C69.5532 31.1259 66.2466 32.5482 63.8086 35.0799C61.3706 37.6117 60.001 41.0454 60.001 44.6259V91.8758C60.001 89.1905 61.0282 86.6152 62.8567 84.7164C64.6852 82.8176 67.1651 81.7508 69.751 81.7508H92.501V31.1259Z" stroke="#F2F3F5" stroke-width="5" stroke-linecap="round" stroke-linejoin="round"/>
<path d="M145.71 80H141.3C140.507 80 140.11 79.6033 140.11 78.81V36.18C140.11 35.3867 140.507 34.99 141.3 34.99H145.71C146.503 34.99 146.9 35.3867 146.9 36.18V53.68C146.9 54.1467 147.18 54.38 147.74 54.38H162.51C162.977 54.38 163.21 54.1467 163.21 53.68V36.18C163.21 35.3867 163.607 34.99 164.4 34.99H168.88C169.673 34.99 170.07 35.3867 170.07 36.18V78.81C170.07 79.6033 169.673 80 168.88 80H164.4C163.607 80 163.21 79.6033 163.21 78.81V61.1C163.21 60.6333 162.977 60.4 162.51 60.4H147.74C147.18 60.4 146.9 60.6333 146.9 61.1V78.81C146.9 79.6033 146.503 80 145.71 80ZM185.905 80H181.495C180.702 80 180.305 79.6033 180.305 78.81V36.18C180.305 35.3867 180.702 34.99 181.495 34.99H198.155C201.562 34.99 204.222 35.9467 206.135 37.86C208.049 39.7267 209.005 42.3867 209.005 45.84V53.12C209.005 56.5267 208.049 59.1867 206.135 61.1C204.222 63.0133 201.562 63.97 198.155 63.97H187.935C187.375 63.97 187.095 64.2033 187.095 64.67V78.81C187.095 79.6033 186.699 80 185.905 80ZM187.865 57.95H197.175C200.489 57.95 202.145 56.2233 202.145 52.77V46.12C202.145 42.6667 200.489 40.94 197.175 40.94H187.865C187.352 40.94 187.095 41.1733 187.095 41.64V57.25C187.095 57.7167 187.352 57.95 187.865 57.95ZM232.898 80H226.738C223.284 80 220.601 79.0433 218.688 77.13C216.821 75.2167 215.888 72.5567 215.888 69.15V55.15C215.888 51.6967 216.821 49.0367 218.688 47.17C220.601 45.2567 223.284 44.3 226.738 44.3H232.898C236.304 44.3 238.964 45.2567 240.878 47.17C242.838 49.0367 243.818 51.6967 243.818 55.15V69.15C243.818 72.5567 242.838 75.2167 240.878 77.13C238.964 79.0433 236.304 80 232.898 80ZM227.718 74.05H231.988C235.348 74.05 237.028 72.3467 237.028 68.94V55.36C237.028 51.9533 235.348 50.25 231.988 50.25H227.718C225.944 50.25 224.661 50.67 223.868 51.51C223.074 52.3033 222.678 53.5867 222.678 55.36V68.94C222.678 70.7133 223.074 72.02 223.868 72.86C224.661 73.6533 225.944 74.05 227.718 74.05ZM257.461 80H253.051C252.258 80 251.861 79.6033 251.861 78.81V45.49C251.861 44.6967 252.258 44.3 253.051 44.3H257.461C258.255 44.3 258.651 44.6967 258.651 45.49V48.01H258.931C260.285 45.5367 262.758 44.3 266.351 44.3H268.661C272.721 44.3 275.615 45.84 277.341 48.92C278.088 47.4267 279.231 46.2833 280.771 45.49C282.311 44.6967 283.968 44.3 285.741 44.3H287.981C291.388 44.3 293.978 45.2567 295.751 47.17C297.571 49.0367 298.481 51.6967 298.481 55.15V78.81C298.481 79.6033 298.085 80 297.291 80H292.811C292.018 80 291.621 79.6033 291.621 78.81V55.43C291.621 51.9767 289.941 50.25 286.581 50.25H284.551C280.678 50.25 278.741 52.28 278.741 56.34V78.81C278.741 79.6033 278.321 80 277.481 80H273.071C272.278 80 271.881 79.6033 271.881 78.81V55.43C271.881 51.9767 270.201 50.25 266.841 50.25H264.391C260.565 50.25 258.651 52.2333 258.651 56.2V78.81C258.651 79.6033 258.255 80 257.461 80ZM323.269 80H317.109C313.655 80 310.972 79.0433 309.059 77.13C307.192 75.2167 306.259 72.5567 306.259 69.15V55.15C306.259 51.6967 307.192 49.0367 309.059 47.17C310.972 45.2567 313.655 44.3 317.109 44.3H323.269C326.675 44.3 329.335 45.2567 331.249 47.17C333.209 49.0367 334.189 51.6967 334.189 55.15V69.15C334.189 72.5567 333.209 75.2167 331.249 77.13C329.335 79.0433 326.675 80 323.269 80ZM318.089 74.05H322.359C325.719 74.05 327.399 72.3467 327.399 68.94V55.36C327.399 51.9533 325.719 50.25 322.359 50.25H318.089C316.315 50.25 315.032 50.67 314.239 51.51C313.445 52.3033 313.049 53.5867 313.049 55.36V68.94C313.049 70.7133 313.445 72.02 314.239 72.86C315.032 73.6533 316.315 74.05 318.089 74.05ZM355.532 80H351.962C348.602 80 346.012 79.0667 344.192 77.2C342.419 75.2867 341.532 72.6033 341.532 69.15V55.15C341.532 51.65 342.419 48.9667 344.192 47.1C346.012 45.2333 348.602 44.3 351.962 44.3H355.532C359.126 44.3 361.459 45.5367 362.532 48.01H362.812V31.98C362.812 31.1867 363.209 30.79 364.002 30.79H368.482C369.276 30.79 369.672 31.1867 369.672 31.98V78.81C369.672 79.6033 369.276 80 368.482 80H364.002C363.209 80 362.812 79.6033 362.812 78.81V76.29H362.532C361.459 78.7633 359.126 80 355.532 80ZM362.812 68.1V56.2C362.812 52.2333 360.899 50.25 357.072 50.25H353.362C350.002 50.25 348.322 51.9767 348.322 55.43V68.87C348.322 72.3233 350.002 74.05 353.362 74.05H357.072C360.899 74.05 362.812 72.0667 362.812 68.1ZM394.773 80H388.613C385.159 80 382.476 79.0433 380.563 77.13C378.696 75.2167 377.763 72.5567 377.763 69.15V55.15C377.763 51.6967 378.696 49.0367 380.563 47.17C382.476 45.2567 385.159 44.3 388.613 44.3H394.773C398.179 44.3 400.839 45.2567 402.753 47.17C404.713 49.0367 405.693 51.6967 405.693 55.15V69.15C405.693 72.5567 404.713 75.2167 402.753 77.13C400.839 79.0433 398.179 80 394.773 80ZM389.593 74.05H393.863C397.223 74.05 398.903 72.3467 398.903 68.94V55.36C398.903 51.9533 397.223 50.25 393.863 50.25H389.593C387.819 50.25 386.536 50.67 385.743 51.51C384.949 52.3033 384.553 53.5867 384.553 55.36V68.94C384.553 70.7133 384.949 72.02 385.743 72.86C386.536 73.6533 387.819 74.05 389.593 74.05ZM419.336 80H414.926C414.133 80 413.736 79.6033 413.736 78.81V45.49C413.736 44.6967 414.133 44.3 414.926 44.3H419.336C420.13 44.3 420.526 44.6967 420.526 45.49V48.15H420.806C421.273 46.9833 422.16 46.05 423.466 45.35C424.82 44.65 426.313 44.3 427.946 44.3H430.536C431.33 44.3 431.726 44.6967 431.726 45.49V49.13C431.726 50.0167 431.33 50.39 430.536 50.25H426.336C422.463 50.25 420.526 52.3733 420.526 56.62V78.81C420.526 79.6033 420.13 80 419.336 80ZM453.493 80H447.333C443.88 80 441.197 79.0433 439.283 77.13C437.417 75.2167 436.483 72.5567 436.483 69.15V55.15C436.483 51.6967 437.417 49.0367 439.283 47.17C441.197 45.2567 443.88 44.3 447.333 44.3H453.493C456.9 44.3 459.56 45.2567 461.473 47.17C463.433 49.0367 464.413 51.6967 464.413 55.15V69.15C464.413 72.5567 463.433 75.2167 461.473 77.13C459.56 79.0433 456.9 80 453.493 80ZM448.313 74.05H452.583C455.943 74.05 457.623 72.3467 457.623 68.94V55.36C457.623 51.9533 455.943 50.25 452.583 50.25H448.313C446.54 50.25 445.257 50.67 444.463 51.51C443.67 52.3033 443.273 53.5867 443.273 55.36V68.94C443.273 70.7133 443.67 72.02 444.463 72.86C445.257 73.6533 446.54 74.05 448.313 74.05Z" fill="white"/>
</svg>
