<svg width="15" height="16" viewBox="0 0 15 16" fill="none" xmlns="http://www.w3.org/2000/svg">
<path d="M10.7582 8.72159V15.2718H3.74286V8.72159H0.936714L7.25055 0.708466L13.5644 8.72159H10.7582Z" fill="#4CD62B"/>
<path d="M13.5651 9.44964C13.3616 9.44964 13.1603 9.35866 13.0214 9.18254L7.24916 1.863L1.47761 9.18254C1.23137 9.49476 0.790805 9.53916 0.490547 9.28588C0.190289 9.03043 0.146094 8.57264 0.39093 8.26186L6.70546 0.253822C6.97275 -0.0846074 7.52486 -0.0846074 7.79214 0.253822L14.1074 8.26186C14.3529 8.57264 14.308 9.03115 14.0078 9.28588C13.878 9.39578 13.7215 9.44964 13.5651 9.44964Z" fill="#4CD62B"/>
<path d="M3.74139 16C3.35344 16 3.03985 15.6747 3.03985 15.2722V8.72198C3.03985 8.3195 3.35344 7.99417 3.74139 7.99417C4.12934 7.99417 4.44292 8.3195 4.44292 8.72198V15.2722C4.44292 15.6747 4.12934 16 3.74139 16Z" fill="#4CD62B"/>
<path d="M10.7568 15.9997H3.74139C3.35344 15.9997 3.03985 15.6744 3.03985 15.2719C3.03985 14.8695 3.35344 14.5441 3.74139 14.5441H10.7568C11.1447 14.5441 11.4583 14.8695 11.4583 15.2719C11.4583 15.6744 11.1447 15.9997 10.7568 15.9997Z" fill="#4CD62B"/>
<path d="M10.7569 16C10.369 16 10.0554 15.6747 10.0554 15.2722V8.72198C10.0554 8.3195 10.369 7.99417 10.7569 7.99417C11.1449 7.99417 11.4584 8.3195 11.4584 8.72198V15.2722C11.4584 15.6747 11.1449 16 10.7569 16Z" fill="#4CD62B"/>
<path d="M3.74165 9.44978H0.934806C0.546856 9.44978 0.233269 9.12445 0.233269 8.72198C0.233269 8.3195 0.546856 7.99417 0.934806 7.99417H3.74165C4.1296 7.99417 4.44319 8.3195 4.44319 8.72198C4.44319 9.12445 4.1296 9.44978 3.74165 9.44978Z" fill="#4CD62B"/>
<path d="M13.5645 9.44978H10.7569C10.369 9.44978 10.0554 9.12445 10.0554 8.72198C10.0554 8.3195 10.369 7.99417 10.7569 7.99417H13.5645C13.9524 7.99417 14.266 8.3195 14.266 8.72198C14.266 9.12445 13.9524 9.44978 13.5645 9.44978Z" fill="#4CD62B"/>
</svg>
